# xmcd
#
# Track frame offsets: 
#        150
#        10357
#        23207
#        39050
#        53035
#        66212
#        91715
#        103557
#        114577
#        127200
#        138382
#        149602
#        165412
#        183367
#        203252
#        225905
#
# Disc length: 3335 seconds
#
# Revision: 2
# Processed by: cddbd v1.5.2PL0 Copyright (c) Steve Scherf et al.
# Submitted via: ExactAudioCopy v0.99pb3
#
DISCID=c90d0510
DTITLE=Various Artist - Kings of the blues guitar
DYEAR=1998
DGENRE=Blues
TTITLE0=John lee Hooker - Dimples
TTITLE1=T-borne walker - Stormy monday blues
TTITLE2=Fenton Robinson - The sky is crying
TTITLE3=T S 'groundhog' McPhee - Ain't gonna cry no more
TTITLE4=Otis Rush - All your love
TTITLE5=Eric Clapton - Smokestack lightnin'
TTITLE6=Robert Johnson - If I had possession over judgement day
TTITLE7=Jeff Beck - Shapes of things
TTITLE8=Jimmy Reed - Gig boss man
TTITLE9=Elmore James - Rollin' and tumblin'
TTITLE10=Johnny Winter - Gangster of love
TTITLE11=Magic Sam - Easy baby
TTITLE12=Lightnin' Hopkins - Letter to my (back door friend)
TTITLE13=Albert Collins - Too many dirty dishes (live)
TTITLE14=Luther Allison - Sweet home chicago
TTITLE15=Albert King - Born under a bad sign
EXTD=
EXTT0=
EXTT1=
EXTT2=
EXTT3=
EXTT4=
EXTT5=
EXTT6=
EXTT7=
EXTT8=
EXTT9=
EXTT10=
EXTT11=
EXTT12=
EXTT13=
EXTT14=
EXTT15=
PLAYORDER=
